<svg width="22" height="20" viewBox="0 0 22 20" fill="none" xmlns="http://www.w3.org/2000/svg">
<path d="M10.1816 0.85958C10.4815 -0.0606967 11.7834 -0.0606959 12.0832 0.859581L13.8343 6.23398C13.9684 6.64561 14.3522 6.92418 14.7851 6.92418H20.4459C21.4153 6.92418 21.8176 8.16521 21.0326 8.73398L16.4577 12.0486C16.1063 12.3033 15.9592 12.7555 16.0936 13.1682L17.8422 18.5349C18.1422 19.4557 17.089 20.2227 16.3047 19.6544L11.7191 16.3321C11.3691 16.0784 10.8957 16.0784 10.5457 16.3321L5.96016 19.6544C5.17591 20.2227 4.12262 19.4557 4.42264 18.5348L6.17121 13.1682C6.30567 12.7555 6.15859 12.3033 5.80713 12.0486L1.23225 8.73398C0.447246 8.16521 0.849577 6.92418 1.81897 6.92418H7.47973C7.91265 6.92418 8.29641 6.6456 8.43053 6.23398L10.1816 0.85958Z" fill="#EEEEEE"/>
</svg>
